<svg width="281" height="74" viewBox="0 0 281 74" fill="none" xmlns="http://www.w3.org/2000/svg">
<path d="M30.0938 42.9844H15.6094L17.4844 32.2031L27.7969 32.2969C29.5156 32.2656 31.0312 31.9375 32.3438 31.3125C33.6875 30.6875 34.7656 29.7812 35.5781 28.5938C36.4219 27.4062 36.9844 25.9531 37.2656 24.2344C37.4844 22.7969 37.5156 21.5156 37.3594 20.3906C37.2031 19.2344 36.7344 18.3125 35.9531 17.625C35.2031 16.9062 34.0156 16.5312 32.3906 16.5L26.2031 16.4531L16.5 72H0.9375L12.7031 3.75L32.9062 3.79688C35.7812 3.82813 38.4844 4.23437 41.0156 5.01562C43.5469 5.76562 45.75 6.89062 47.625 8.39062C49.5312 9.89062 50.9844 11.7969 51.9844 14.1094C52.9844 16.3906 53.3906 19.1094 53.2031 22.2656C52.9844 25.8594 52.0625 28.8594 50.4375 31.2656C48.8125 33.6406 46.6406 35.4531 43.9219 36.7031C41.2344 37.9531 38.1719 38.6406 34.7344 38.7656L30.0938 42.9844ZM24.7031 72H6.375L14.0156 59.3438L25.2656 59.4375C26.8906 59.375 28.2656 58.9844 29.3906 58.2656C30.5156 57.5156 31.4062 56.5312 32.0625 55.3125C32.75 54.0625 33.2188 52.6875 33.4688 51.1875C33.6875 50.0938 33.8125 48.9375 33.8438 47.7188C33.9062 46.5 33.6719 45.4531 33.1406 44.5781C32.6406 43.6719 31.6719 43.1562 30.2344 43.0312L17.6719 42.9844L19.6875 32.2031L32.6719 32.25L35.4844 36.5156C38.4844 36.6094 41 37.2656 43.0312 38.4844C45.0938 39.7031 46.625 41.4219 47.625 43.6406C48.6562 45.8594 49.0469 48.4531 48.7969 51.4219C48.5156 56.0781 47.2969 59.9375 45.1406 63C43.0156 66.0625 40.1875 68.3438 36.6562 69.8438C33.125 71.3438 29.1406 72.0625 24.7031 72ZM76.1719 59.25L79.6875 36.75C79.75 35.9375 79.8281 35.1406 79.9219 34.3594C80.0469 33.5469 79.9531 32.8594 79.6406 32.2969C79.3594 31.7031 78.6562 31.4219 77.5312 31.4531C76.4375 31.4219 75.6562 31.6875 75.1875 32.25C74.75 32.7812 74.4688 33.4688 74.3438 34.3125C74.25 35.1562 74.125 36 73.9688 36.8438L58.9219 36.9375C59.0469 34.25 59.6719 31.8594 60.7969 29.7656C61.9531 27.6719 63.4688 25.9219 65.3438 24.5156C67.2188 23.1094 69.3281 22.0469 71.6719 21.3281C74.0469 20.6094 76.5156 20.2812 79.0781 20.3438C82.4219 20.375 85.3438 21.0625 87.8438 22.4062C90.3438 23.7188 92.2188 25.625 93.4688 28.125C94.7188 30.625 95.1719 33.5938 94.8281 37.0312L91.2656 59.25C90.9844 61.1875 90.7812 63.1719 90.6562 65.2031C90.5625 67.2344 90.7656 69.2031 91.2656 71.1094L91.2188 72L76.6406 72.0469C75.9844 70.0156 75.6562 67.9062 75.6562 65.7188C75.6875 63.5312 75.8594 61.375 76.1719 59.25ZM81.0469 41.0156L79.6406 49.4531L76.4531 49.4062C75.2969 49.4375 74.2969 49.7031 73.4531 50.2031C72.6094 50.6719 71.9062 51.2969 71.3438 52.0781C70.8125 52.8281 70.3906 53.6875 70.0781 54.6562C69.7656 55.625 69.5469 56.6406 69.4219 57.7031C69.2969 58.3906 69.2031 59.0625 69.1406 59.7188C69.1094 60.3438 69.2188 60.875 69.4688 61.3125C69.7188 61.7188 70.2969 61.9219 71.2031 61.9219C72.1406 61.9219 73 61.7031 73.7812 61.2656C74.5625 60.8281 75.2188 60.2656 75.75 59.5781C76.2812 58.8906 76.6094 58.1094 76.7344 57.2344L77.625 63.6094C77.0312 64.7969 76.4375 65.9531 75.8438 67.0781C75.25 68.2031 74.5781 69.2188 73.8281 70.125C73.0781 71.0312 72.1562 71.7344 71.0625 72.2344C70 72.7656 68.6562 73.0312 67.0312 73.0312C64.25 73.0312 61.8594 72.3594 59.8594 71.0156C57.8906 69.6719 56.4062 67.9062 55.4062 65.7188C54.4375 63.5312 54 61.0781 54.0938 58.3594C54.1875 55.2656 54.875 52.6094 56.1562 50.3906C57.4688 48.1719 59.1875 46.375 61.3125 45C63.4375 43.625 65.7969 42.6094 68.3906 41.9531C70.9844 41.2969 73.6875 40.9688 76.5 40.9688L81.0469 41.0156ZM118.266 34.6406L111.797 72H96.75L105.562 21.2812H119.484L118.266 34.6406ZM131.953 20.9531L129.844 35.5781C129.094 35.4531 128.344 35.3438 127.594 35.25C126.844 35.1562 126.078 35.0938 125.297 35.0625C123.766 35.0312 122.438 35.2812 121.312 35.8125C120.188 36.3438 119.25 37.0938 118.5 38.0625C117.781 39 117.188 40.0781 116.719 41.2969C116.281 42.5156 115.953 43.8281 115.734 45.2344L113.438 43.3594C113.688 41.3906 114.062 39.0938 114.562 36.4688C115.094 33.8438 115.859 31.2812 116.859 28.7812C117.891 26.25 119.266 24.1875 120.984 22.5938C122.734 20.9688 124.969 20.1719 127.688 20.2031C128.438 20.2344 129.156 20.3281 129.844 20.4844C130.531 20.6094 131.234 20.7656 131.953 20.9531ZM141.469 0H156.469L145.969 60.375L142.547 72H128.953L141.469 0ZM173.156 44.2031L172.547 48.9375C172.234 51.75 171.703 54.6094 170.953 57.5156C170.203 60.4219 169.125 63.0625 167.719 65.4375C166.344 67.8125 164.484 69.6875 162.141 71.0625C159.828 72.4375 156.953 73.0625 153.516 72.9375C150.641 72.8125 148.422 71.875 146.859 70.125C145.297 68.3438 144.188 66.1406 143.531 63.5156C142.875 60.8906 142.484 58.2188 142.359 55.5C142.266 52.7812 142.25 50.4062 142.312 48.375L142.734 45.1406C143.109 42.9219 143.672 40.3906 144.422 37.5469C145.203 34.6719 146.25 31.9062 147.562 29.25C148.875 26.5938 150.547 24.4219 152.578 22.7344C154.609 21.0469 157.078 20.2344 159.984 20.2969C163.328 20.3594 165.953 21.125 167.859 22.5938C169.797 24.0625 171.188 26 172.031 28.4062C172.906 30.7812 173.391 33.3438 173.484 36.0938C173.578 38.8438 173.469 41.5469 173.156 44.2031ZM157.688 48.9844L158.156 44.2031C158.219 43.2656 158.359 42.1562 158.578 40.875C158.828 39.5625 158.969 38.2812 159 37.0312C159.031 35.75 158.766 34.6719 158.203 33.7969C157.641 32.9219 156.641 32.4531 155.203 32.3906C153.609 32.3281 152.328 32.6562 151.359 33.375C150.391 34.0625 149.641 34.9844 149.109 36.1406C148.609 37.2656 148.25 38.5 148.031 39.8438C147.812 41.1875 147.672 42.4844 147.609 43.7344L146.859 49.5C146.672 50.9062 146.453 52.4844 146.203 54.2344C145.984 55.9531 146.141 57.4688 146.672 58.7812C147.234 60.0625 148.562 60.7344 150.656 60.7969C152.344 60.8594 153.641 60.5312 154.547 59.8125C155.484 59.0625 156.141 58.0781 156.516 56.8594C156.922 55.6406 157.172 54.3438 157.266 52.9688C157.391 51.5938 157.531 50.2656 157.688 48.9844ZM196.688 72.9375C193.375 72.875 190.453 72.2656 187.922 71.1094C185.422 69.9531 183.359 68.3594 181.734 66.3281C180.141 64.2656 179.016 61.875 178.359 59.1562C177.703 56.4062 177.516 53.4219 177.797 50.2031L178.5 44.6719C178.938 41.2344 179.719 38.0312 180.844 35.0625C181.969 32.0938 183.484 29.4844 185.391 27.2344C187.328 24.9844 189.688 23.25 192.469 22.0312C195.25 20.7812 198.531 20.2188 202.312 20.3438C205.719 20.4375 208.531 21.1562 210.75 22.5C213 23.8438 214.734 25.6406 215.953 27.8906C217.203 30.1406 218.016 32.6719 218.391 35.4844C218.766 38.2969 218.781 41.2188 218.438 44.25L217.359 51.6094H183.047L184.781 41.7188L203.953 41.7656L204.281 39.8906C204.438 38.7656 204.547 37.6562 204.609 36.5625C204.672 35.4375 204.453 34.5 203.953 33.75C203.484 32.9688 202.531 32.5156 201.094 32.3906C199.344 32.3281 198 32.6875 197.062 33.4688C196.125 34.2188 195.422 35.2344 194.953 36.5156C194.516 37.7656 194.203 39.125 194.016 40.5938C193.828 42.0312 193.672 43.3906 193.547 44.6719L192.844 50.25C192.719 51.5 192.641 52.7344 192.609 53.9531C192.578 55.1406 192.719 56.25 193.031 57.2812C193.375 58.2812 193.938 59.0938 194.719 59.7188C195.531 60.3125 196.734 60.6406 198.328 60.7031C200.266 60.7656 202.094 60.4531 203.812 59.7656C205.531 59.0469 207.078 58 208.453 56.625L213.984 66.3281C212.703 68.0156 211.078 69.3438 209.109 70.3125C207.172 71.25 205.109 71.9219 202.922 72.3281C200.766 72.7656 198.688 72.9688 196.688 72.9375ZM241.547 34.6406L235.078 72H220.031L228.844 21.2812H242.766L241.547 34.6406ZM255.234 20.9531L253.125 35.5781C252.375 35.4531 251.625 35.3438 250.875 35.25C250.125 35.1562 249.359 35.0938 248.578 35.0625C247.047 35.0312 245.719 35.2812 244.594 35.8125C243.469 36.3438 242.531 37.0938 241.781 38.0625C241.062 39 240.469 40.0781 240 41.2969C239.562 42.5156 239.234 43.8281 239.016 45.2344L236.719 43.3594C236.969 41.3906 237.344 39.0938 237.844 36.4688C238.375 33.8438 239.141 31.2812 240.141 28.7812C241.172 26.25 242.547 24.1875 244.266 22.5938C246.016 20.9688 248.25 20.1719 250.969 20.2031C251.719 20.2344 252.438 20.3281 253.125 20.4844C253.812 20.6094 254.516 20.7656 255.234 20.9531ZM280.875 3.75L270.844 50.3906H258.703L264.844 3.75H280.875ZM253.922 65.1562C253.891 62.8438 254.672 60.9062 256.266 59.3438C257.859 57.75 259.812 56.9531 262.125 56.9531C264.375 56.9219 266.266 57.6406 267.797 59.1094C269.328 60.5781 270.109 62.4375 270.141 64.6875C270.109 67.0312 269.312 68.9844 267.75 70.5469C266.188 72.1094 264.25 72.8906 261.938 72.8906C259.719 72.9219 257.828 72.2031 256.266 70.7344C254.734 69.2656 253.953 67.4062 253.922 65.1562Z" fill="#202020"/>
</svg>
